<svg width="96" height="96" xmlns="http://www.w3.org/2000/svg" xmlns:xlink="http://www.w3.org/1999/xlink" xml:space="preserve" overflow="hidden"><defs><clipPath id="clip0"><rect x="501" y="216" width="96" height="96"/></clipPath></defs><g clip-path="url(#clip0)" transform="translate(-501 -216)"><path d="M583 299.6 563 280.6 583 261.6 583 299.6ZM518.2 302 538 283.3 539.4 282C544.8 276.9 553.3 276.9 558.7 282L560.1 283.3 579.8 302 518.2 302ZM515 261.5 535 280.5 515 299.5 515 261.5ZM529 236 569 236 569 269.3 560 277.9C553.5 272.9 544.5 272.9 538 277.9L529 269.3 529 236ZM575 238.7 575 230 561 230 549 220 537 230 523 230 523 238.8 509 252.1 509 308 589 308 589 252.1 575 238.7Z" fill="#FFFFFF"/><path d="M549 258.3C547.2 258.3 545.8 256.8 545.8 255.1 545.8 253.3 547.3 251.9 549 251.9 550.8 251.9 552.2 253.3 552.2 255.1 552.2 256.9 550.8 258.3 549 258.3ZM549 268C551.3 268 553.5 267.4 555.5 266.4 556.3 265.9 556.6 264.9 556.2 264.1 555.7 263.3 554.7 263 553.9 263.4 552.4 264.2 550.7 264.6 549 264.6 543.7 264.6 539.3 260.2 539.4 254.9 539.4 249.6 543.8 245.2 549.1 245.2 554.4 245.2 558.8 249.5 558.8 254.9L558.8 258.1C557 258.1 555.6 256.7 555.6 254.9 555.6 251.7 553.4 249 550.3 248.4 547.2 247.8 544.1 249.5 543 252.4 541.9 255.3 543 258.7 545.7 260.3 548.4 261.9 551.9 261.4 554 259 555.2 260.4 557 261.2 558.9 261.2 560.7 261.2 562.1 259.8 562.1 258L562.1 254.8C562.1 247.6 556.3 241.8 549.1 241.8 541.9 241.8 536.1 247.6 536.1 254.8 536 262.1 541.8 267.9 549 268Z" fill="#FFFFFF"/></g></svg>